<?xml version="1.0" encoding="utf-8"?>
<!-- Generator: Adobe Illustrator 24.1.0, SVG Export Plug-In . SVG Version: 6.00 Build 0)  -->
<svg version="1.1" xmlns="http://www.w3.org/2000/svg" xmlns:xlink="http://www.w3.org/1999/xlink" x="0px" y="0px"
	 viewBox="0 0 500 350" style="enable-background:new 0 0 500 350;" xml:space="preserve">
<style type="text/css">
	.st0{fill:#FFFFFF;}
	.st1{fill:#DAF7EB;}
	.st2{fill:#6DE9C2;}
	.st3{fill:#3D3D3D;}
	.st4{fill:#BABAB9;}
	.st5{fill:#502FD3;}
	.st6{fill:#666666;}
	.st7{opacity:0.65;fill:#666666;}
	.st8{fill:#E4CEA8;}
	.st9{fill:#CCCCCC;}
	.st10{fill:#4D4D4D;}
	.st11{fill:none;stroke:#502FD3;stroke-miterlimit:10;}
	.st12{fill:#52C69C;}
	.st13{fill:#329B70;}
	.st14{fill:#50C99E;}
	.st15{fill:none;stroke:#329B70;stroke-width:0.7;stroke-miterlimit:10;}
	.st16{fill:#3B0F9C;}
	.st17{fill:#591DDC;}
	.st18{fill:#575757;}
	.st19{fill:#B3B3B3;}
	.st20{fill:#C6C6C6;}
</style>
<g id="Layer_1">
	<rect class="st0" width="500" height="350"/>
	<path class="st1" d="M240.2,147.9l-15.6-3.4c-1.4-4.1-3-8.2-5-12.1l8.6-13.4c1.5-2.4,1.2-5.5-0.8-7.6l-24.3-24.3
		c-2-2-5.2-2.4-7.6-0.8l-13.4,8.6c-3.9-2-7.9-3.7-12.1-5l-3.4-15.6c-0.6-2.8-3.1-4.8-5.9-4.8h-34.3c-2.8,0-5.3,2-5.9,4.8l-3.4,15.6
		c-4.1,1.4-8.2,3-12.1,5l-13.4-8.6c-2.4-1.5-5.5-1.2-7.6,0.8L60,111.5c-2,2-2.4,5.2-0.8,7.6l8.6,13.4c-2,3.9-3.7,7.9-5,12.1
		l-15.6,3.4c-2.8,0.6-4.8,3.1-4.8,5.9v34.3c0,2.8,2,5.3,4.8,5.9l15.6,3.4c1.4,4.1,3,8.2,5,12.1l-8.6,13.4c-1.5,2.4-1.2,5.5,0.8,7.6
		l24.3,24.3c2,2,5.2,2.4,7.6,0.8l13.4-8.6c3.9,2,7.9,3.7,12.1,5l3.4,15.6c0.6,2.8,3.1,4.8,5.9,4.8h34.3c2.8,0,5.3-2,5.9-4.8
		l3.4-15.6c4.1-1.4,8.2-3,12.1-5l13.4,8.6c2.4,1.5,5.5,1.2,7.6-0.8l24.3-24.3c2-2,2.4-5.2,0.8-7.6l-8.6-13.4c2-3.9,3.7-7.9,5-12.1
		l15.6-3.4c2.8-0.6,4.8-3.1,4.8-5.9v-34.3C245,151,243,148.5,240.2,147.9z M180,171c0,20-16.3,36.3-36.3,36.3S107.4,191,107.4,171
		s16.3-36.3,36.3-36.3S180,151,180,171z"/>
	<path class="st2" d="M115.3,88.5l-5-1.1c-0.4-1.3-1-2.6-1.6-3.9l2.7-4.3c0.5-0.8,0.4-1.8-0.3-2.4l-7.7-7.7
		c-0.6-0.6-1.6-0.7-2.4-0.3l-4.3,2.7c-1.2-0.6-2.5-1.2-3.9-1.6l-1.1-5c-0.2-0.9-1-1.5-1.9-1.5H79.1c-0.9,0-1.7,0.6-1.9,1.5l-1.1,5
		c-1.3,0.4-2.6,1-3.9,1.6L68,68.9c-0.8-0.5-1.8-0.4-2.4,0.3l-7.7,7.7c-0.6,0.6-0.7,1.6-0.3,2.4l2.7,4.3c-0.6,1.2-1.2,2.5-1.6,3.9
		l-5,1.1c-0.9,0.2-1.5,1-1.5,1.9v10.9c0,0.9,0.6,1.7,1.5,1.9l5,1.1c0.4,1.3,1,2.6,1.6,3.9l-2.7,4.3c-0.5,0.8-0.4,1.8,0.3,2.4
		l7.7,7.7c0.6,0.6,1.6,0.7,2.4,0.3l4.3-2.7c1.2,0.6,2.5,1.2,3.9,1.6l1.1,5c0.2,0.9,1,1.5,1.9,1.5H90c0.9,0,1.7-0.6,1.9-1.5l1.1-5
		c1.3-0.4,2.6-1,3.9-1.6l4.3,2.7c0.8,0.5,1.8,0.4,2.4-0.3l7.7-7.7c0.6-0.6,0.7-1.6,0.3-2.4l-2.7-4.3c0.6-1.2,1.2-2.5,1.6-3.9l5-1.1
		c0.9-0.2,1.5-1,1.5-1.9V90.4C116.8,89.5,116.2,88.7,115.3,88.5z M96.1,95.9c0,6.4-5.2,11.6-11.6,11.6S73,102.3,73,95.9
		c0-6.4,5.2-11.6,11.6-11.6S96.1,89.5,96.1,95.9z"/>
	<path class="st3" d="M395.2,245H126.8c-2.1,0-3.8-1.7-3.8-3.8V76.8c0-2.1,1.7-3.8,3.8-3.8h268.4c2.1,0,3.8,1.7,3.8,3.8v164.4
		C399,243.3,397.3,245,395.2,245z"/>
	<rect x="238" y="239" class="st3" width="45" height="35"/>
	<path class="st3" d="M296.3,274h-69.6c-0.4,0-0.7-0.3-0.7-0.7v-2.6c0-0.4,0.3-0.7,0.7-0.7h69.6c0.4,0,0.7,0.3,0.7,0.7v2.6
		C297,273.7,296.7,274,296.3,274z"/>
	<path class="st0" d="M388.3,228H133.7c-2,0-3.7-1.6-3.7-3.7V83.7c0-2,1.6-3.7,3.7-3.7h254.7c2,0,3.7,1.6,3.7,3.7v140.7
		C392,226.4,390.4,228,388.3,228z"/>
	<rect x="313" y="86" width="20" height="4"/>
	<rect x="338" y="86" width="20" height="4"/>
	<rect x="362" y="86" width="20" height="4"/>
	<rect x="289" y="86" width="20" height="4"/>
	<rect x="137" y="85" width="10" height="8"/>
	<g>
		<rect x="140" y="196.7" width="3.9" height="3.2"/>
		<rect x="140" y="201.7" width="3.9" height="3.2"/>
		<rect x="140" y="206.7" width="3.9" height="3.2"/>
		<rect x="140" y="211.7" width="3.9" height="3.2"/>
		<rect x="140" y="216.7" width="3.9" height="3.2"/>
	</g>
	<rect x="273" y="198" class="st4" width="49" height="20"/>
	<rect x="333" y="198" class="st4" width="49" height="20"/>
	<rect x="169" y="154" width="81" height="8"/>
	<rect x="169" y="167" width="81" height="8"/>
	<rect x="169" y="183" class="st5" width="40" height="8"/>
	<ellipse class="st6" cx="110" cy="286.3" rx="13" ry="1"/>
	<ellipse class="st7" cx="83.2" cy="286.3" rx="2.1" ry="0.2"/>
	<path class="st8" d="M130.2,203.7c0-0.8-2.1-1.4-2.6-1.3c-1.4,0.5-1.6,0.6-1.6,1.4c0,0.8,1.5,2.2,3,1.5c0.3-0.2-1-0.8-0.7-0.7
		C129,204.6,130.2,204.4,130.2,203.7z"/>
	<path class="st8" d="M122.2,179.9c1.7,0.8,3.9-0.8,4.3-1.8c2.1-5,2.1-9-0.2-9c-1.8,0-6.6,3.7-6.4,7c0,0.8,2.4-1.1,2.1-0.6
		C121.4,176.8,121,179.2,122.2,179.9z"/>
	<path class="st8" d="M150.6,179.2c0.5,0.6-0.9,2.4-1.4,2.6c-1.4,0.4-1.6,0.4-2.1-0.2c-0.5-0.6-0.1-2.6,1.5-3c0.4-0.1-0.4,1.2-0.2,1
		C149.1,179.1,150.2,178.7,150.6,179.2z"/>
	<g>
		<path class="st9" d="M180.5,179.6h-40.9c-0.9,0-1.6-0.7-1.6-1.6v-25.9c0-0.9,0.7-1.6,1.6-1.6h40.9c0.9,0,1.6,0.7,1.6,1.6v25.9
			C182.1,178.9,181.3,179.6,180.5,179.6z"/>
		<polygon class="st0" points="167.1,165.1 157.8,159.8 157.8,170.5 		"/>
	</g>
	<rect x="311" y="148" class="st5" width="2" height="134"/>
	<rect x="344" y="148" class="st5" width="2" height="134"/>
	<rect x="312" y="158" class="st5" width="34" height="2"/>
	<rect x="312" y="165" class="st5" width="34" height="2"/>
	<rect x="312" y="172" class="st5" width="34" height="2"/>
	<rect x="312" y="179" class="st5" width="34" height="2"/>
	<rect x="312" y="187" class="st5" width="34" height="2"/>
	<polygon class="st6" points="126.7,202.7 127.2,205.7 115.2,206 112,188.5 117.7,185.3 119.1,200.5 	"/>
	<rect x="312" y="194" class="st5" width="34" height="2"/>
	<polygon class="st10" points="115.2,218.8 99.8,211.3 112,180.7 124.5,187.1 	"/>
	<rect x="312" y="201" class="st5" width="34" height="2"/>
	<rect x="312" y="208" class="st5" width="34" height="2"/>
	<rect x="312" y="215" class="st5" width="34" height="2"/>
	<rect x="312" y="222" class="st5" width="34" height="2"/>
	<rect x="312" y="229" class="st5" width="34" height="2"/>
	<rect x="312" y="236" class="st5" width="34" height="2"/>
	<rect x="312" y="244" class="st5" width="34" height="2"/>
	<rect x="312" y="252" class="st5" width="34" height="2"/>
	<rect x="312" y="260" class="st5" width="34" height="2"/>
	<rect x="312" y="269" class="st5" width="34" height="2"/>
	<g>
		<rect x="37.5" y="102.9" class="st11" width="36.9" height="36.9"/>
		<rect x="48.4" y="117.1" class="st5" width="36.9" height="36.9"/>
	</g>
	<polygon class="st12" points="110.8,277.9 107.2,277.9 99.8,211.3 115.2,218.8 	"/>
	<polygon class="st2" points="84.7,263.7 84.6,261.2 101.1,239.9 99.8,211.3 115.2,218.8 110,242.9 	"/>
	<g>
		<path class="st0" d="M54.2,135.2l8.4-4.3v1.2l-7,3.5v0l7,3.5v1.2l-8.4-4.3V135.2z"/>
		<path class="st0" d="M63.7,141.2l5-13.1H70l-5,13.1H63.7z"/>
		<path class="st0" d="M79.4,136.2l-8.4,4.3v-1.2l7.1-3.5v0l-7.1-3.5v-1.2l8.4,4.3V136.2z"/>
	</g>
	<polygon points="112.1,286.3 108.8,286.3 107.5,284.7 106,282 107.2,277.9 110.8,277.9 110.5,284.3 	"/>
	<polygon points="83.6,269.9 81,262.2 84.8,260.8 85.4,263.9 	"/>
	<ellipse class="st6" cx="438.5" cy="312" rx="39.5" ry="2"/>
	<g>
		<g>
			<path class="st12" d="M441.3,309.8h-41.7l-1.4-13.4l17.4-1.5c3.3-0.3,9.2-0.3,12.4,0l14.9,1.5L441.3,309.8z"/>
			<path class="st2" d="M443.9,310l-13.4,1.6c-7.2,0.1-13.3,0.8-19.9,0l-13.4-1.6v-13.7l13.4,1.6c6.6,0.8,13.3,0.8,19.9,0l13.4-1.6
				V310z"/>
			<path class="st2" d="M397.1,310h-18.5c-16.8,1.1-25.1,1.6-31,1.4l-22.5-0.2l6.2-3l17.8,0.1c6.6,0.8,22.4-11.8,30.9-12h17.1V310z"
				/>
			<ellipse class="st13" cx="421.6" cy="296.3" rx="9.8" ry="0.5"/>
			<polygon class="st14" points="326.1,311.3 323,311.3 330,308.2 333.1,308.2 			"/>
		</g>
		<line class="st15" x1="380" y1="296.3" x2="380" y2="301.8"/>
		<line class="st15" x1="389.4" y1="296.3" x2="389.4" y2="302.3"/>
		<line class="st15" x1="397.1" y1="296.5" x2="397.1" y2="302.4"/>
		<line class="st15" x1="405.3" y1="297.4" x2="405.3" y2="303.4"/>
		<line class="st15" x1="413.8" y1="298.3" x2="413.8" y2="304.3"/>
		<line class="st15" x1="420.6" y1="298.6" x2="420.6" y2="304.5"/>
		<line class="st15" x1="427.1" y1="298.3" x2="427.1" y2="304.3"/>
		<line class="st15" x1="433.6" y1="297.6" x2="433.6" y2="303.5"/>
		<line class="st15" x1="439.5" y1="296.8" x2="439.5" y2="302.8"/>
		<polygon class="st13" points="336.4,309.8 335,309.8 338.2,308.4 339.6,308.4 		"/>
		<polygon class="st13" points="342.6,310 341.2,310 344.3,308.6 345.8,308.6 		"/>
		<polygon class="st13" points="356.3,308.2 355.6,308.2 355.6,306.8 356.3,306.4 		"/>
		<polygon class="st13" points="361.1,306.2 360.4,306.2 360.4,304.5 361.1,304.1 		"/>
		<polygon class="st13" points="366,304.4 365.3,304.4 365.3,301.9 366,301.5 		"/>
		<polygon class="st13" points="371.9,302.2 371.1,302.2 371.1,299 371.9,298.7 		"/>
	</g>
	<polygon class="st10" points="146.5,179.6 149.3,182 137,190.6 115.8,194.2 113.1,184 134.5,185.9 	"/>
	<path d="M116.3,193.3c-2,0.9-2.1,3.9-4.2,3.4c-3.5-0.7-4.1,0-6.4,0.4c-2.5,0.5-4.4-5.6-1.5-9.5c1.8-2.4,0.4-7.9,2.9-9.6
		s2.9-3.3,3.9-8.2s8.4-6.9,11.6-6.3s6.6,5.4,4.4,7.4c-2.2,2-1.5,9.2-4.8,10.5c-1.6,0.6-0.3,4.2-2.8,6.5
		C117.2,190.3,118.4,192.3,116.3,193.3z"/>
	<polygon points="419,312 433,312 433,305 426,305 	"/>
	<polygon points="457,312 443,312 443,305 450,305 	"/>
	<polygon class="st16" points="433,305 427.9,305 427.9,242.7 440,242.7 	"/>
	<polygon class="st17" points="433,305 426,305 426,242.7 438.2,242.7 	"/>
	<polygon class="st17" points="450,305 443,305 435.7,242.7 450,242.7 	"/>
	<g>
		<path class="st2" d="M444.9,182.6c-0.9,3.7-4-0.1-9.2-1.4c-5.2-1.3-10.1-1.3-9.2-4.9c0.9-3.7,6-8.2,12.9-4.5
			c1.8,1,3.5,2.9,4.6,4.5C445.2,178,445.4,180.6,444.9,182.6z"/>
		<path class="st12" d="M445.2,184.5c-0.2,0.7-3.8,0-10.4-2.1c-6.6-2.1-11.7-4.3-11.4-5.1s7.2-0.2,13.7,1.9
			C443.6,181.3,445.4,183.8,445.2,184.5z"/>
	</g>
	<rect x="433.9" y="195" class="st8" width="5.5" height="7"/>
	<rect x="430.2" y="203" class="st0" width="16.5" height="39.7"/>
	<polygon class="st18" points="452.8,249.2 439.4,249.2 439.4,200.3 447.8,200.3 	"/>
	<path class="st18" d="M422.3,249.2h13.4v-48.9h-8.4c-0.9,0-1.6,0.7-1.7,1.6L422.3,249.2z"/>
	<path class="st8" d="M439.6,196.6l-7.3-0.7c-3-0.3-5.2-2.9-4.9-5.9l1-10.6l6,0.9c2.8,0.3,6.5,2.5,6.3,5.3L439.6,196.6z"/>
	<path d="M439.6,196.6c0,0-0.8-11.3-1.9-12.4c-0.5-0.5-0.5-0.5-3.3-0.6c-2.8-0.1-6.8-0.4-7.5-1.6c-1.3-2.4,0.7-3.8,2.3-3.4
		c0.7,0.2,1.5,0.5,4.7,1.1c3.1,0.5,8.1,2.4,8.6,3.6c0.7,1.4,1.2,2.3-0.3,5.4C441.3,190.3,439.6,196.6,439.6,196.6z"/>
	<path class="st18" d="M419.9,246.9l-2.3-0.5c-1.4-0.3-2.3-1.5-2.3-2.9v-24.6c0-0.5,0.1-1.1,0.4-1.5l9-15.2c0.7-1.1,1.3-1.9,2.9-1.8
		h2.6c2,0.5,2.9,3.7,1.8,5.5l-9.2,14.5c-0.3,0.5-0.5,1.1-0.5,1.8l1.2,21.9C423.6,245.8,421.8,247.3,419.9,246.9z"/>
	<polygon class="st18" points="414.7,231.3 409.9,231.3 409.9,226.2 417.4,220.7 	"/>
	<path class="st18" d="M454,234.7l5.6-1.8l1-6.3c0,0-6.2-25.7-12.8-26.4c-2.9-0.3-7.2,1.5-7.2,1.5l12.5,22.9l0.7,2.1l1.3,3.4
		L454,234.7z"/>
	<polygon class="st19" points="432.2,252 412.5,246 412.5,200.2 432.2,208 	"/>
	<polygon class="st20" points="433,252 452.7,246 452.7,200.2 433,208 	"/>
	<path class="st8" d="M450.7,229.2c-0.8,0.8,0.7,3.6,1.4,3.9c1.8,0.9,2.1,1,2.9,0.2c0.8-0.8,0.8-3.7-1.5-4.5c-0.5-0.2,0.3,1.8,0,1.5
		C452.9,229.5,451.4,228.6,450.7,229.2z"/>
	<path class="st8" d="M415,227.1c0.7,0.9-1.3,3.4-2.1,3.6c-2.2,0.5-2-0.3-2.1-1c-0.1-1.1-0.9-3,1.4-3.5c0.5-0.1-0.6,1.7-0.3,1.5
		C412.9,227.1,414.5,226.4,415,227.1z"/>
</g>
<g id="Layer_2">
</g>
</svg>
