<?xml version="1.0" encoding="utf-8"?>
<!-- Generator: Adobe Illustrator 24.1.0, SVG Export Plug-In . SVG Version: 6.00 Build 0)  -->
<svg version="1.1" xmlns="http://www.w3.org/2000/svg" xmlns:xlink="http://www.w3.org/1999/xlink" x="0px" y="0px"
	 viewBox="0 0 500 350" style="enable-background:new 0 0 500 350;" xml:space="preserve">
<style type="text/css">
	.st0{fill:#DAF7EB;}
	.st1{fill:#6DE9C2;}
	.st2{fill:#3D3D3D;}
	.st3{fill:#FFFFFF;}
	.st4{fill:#BABAB9;}
	.st5{fill:#502FD3;}
	.st6{fill:#666666;}
	.st7{opacity:0.65;fill:#666666;}
	.st8{fill:#E4CEA8;}
	.st9{fill:#CCCCCC;}
	.st10{fill:#4D4D4D;}
	.st11{fill:none;stroke:#502FD3;stroke-miterlimit:10;}
	.st12{fill:#52C69C;}
	.st13{fill:#329B70;}
	.st14{fill:#50C99E;}
	.st15{fill:none;stroke:#329B70;stroke-width:0.7;stroke-miterlimit:10;}
	.st16{fill:#3B0F9C;}
	.st17{fill:#591DDC;}
	.st18{fill:#575757;}
	.st19{fill:#B3B3B3;}
	.st20{fill:#C6C6C6;}
	.st21{fill:none;stroke:#FFFFFF;stroke-width:0.8701;stroke-miterlimit:10;}
	.st22{fill:#E2E2E2;}
	.st23{fill:none;stroke:#591DDC;stroke-width:4.5706;stroke-linecap:round;stroke-linejoin:round;stroke-miterlimit:10;}
	.st24{fill:none;stroke:#000000;stroke-width:0.6398;stroke-miterlimit:10;}
	.st25{fill:none;stroke:#000000;stroke-miterlimit:10;stroke-dasharray:8;}
	.st26{fill:none;stroke:#000000;stroke-miterlimit:10;stroke-dasharray:6;}
</style>
<g id="Layer_1">
	<ellipse class="st17" cx="268.5" cy="306.3" rx="140.9" ry="4.7"/>
	<g>
		
			<image style="overflow:visible;" width="250" height="255" xlink:href="A066ABC0CC4E8B5D.png"  transform="matrix(1 0 0 1 138.8059 33.4649)">
		</image>
	</g>
	<polygon class="st1" points="374.5,251.6 150.3,251.6 150.3,168 262.4,70.2 374.5,168 	"/>
	<rect x="172.9" y="70.2" class="st3" width="179.1" height="200.8"/>
	<polygon class="st1" points="374.5,306.4 150.3,306.4 150.3,166.9 262.4,234.2 374.5,166.9 	"/>
	<polygon class="st0" points="374.5,306.4 150.3,306.4 150.3,167 262.4,239.7 374.5,167 	"/>
	<line class="st21" x1="372.4" y1="303.5" x2="301.8" y2="221.4"/>
	<rect x="219.4" y="170.6" class="st22" width="88.5" height="5.9"/>
	<rect x="219.4" y="158" class="st22" width="88.5" height="5.9"/>
	<rect x="219.4" y="182.8" class="st22" width="88.5" height="5.9"/>
	<line class="st21" x1="152" y1="304.5" x2="224.3" y2="221.4"/>
	<polyline class="st23" points="248.8,118.4 262.7,134.7 287.7,104.4 	"/>
	<polygon points="363.1,248.6 353.5,197 395.6,218.6 374.5,222.8 	"/>
	<polygon points="106.2,146 130.7,136.7 123.8,159.3 119.9,149.3 	"/>
	<polygon points="382.1,61.8 377.4,49.5 388.7,52.9 383.7,54.9 	"/>
	<g>
		<line class="st24" x1="426.3" y1="230.2" x2="426.3" y2="262.5"/>
		<line class="st24" x1="410.2" y1="246.3" x2="442.5" y2="246.3"/>
		<polygon points="426.3,221.4 420.7,228.5 432,228.5 		"/>
		<polygon points="426.3,271.3 432,264.1 420.7,264.1 		"/>
		<polygon points="451.6,246.3 444.4,240.7 444.4,251.9 		"/>
		<polygon points="400.8,246.3 408,251.9 408,240.7 		"/>
	</g>
	<path class="st17" d="M119.6,258.3H82.7c-1.6,0-3-1.3-3-3l0,0c0-1.6,1.3-3,3-3h36.9c1.6,0,3,1.3,3,3l0,0
		C122.6,257,121.2,258.3,119.6,258.3z"/>
	<path class="st17" d="M67.3,258.3h-6.4c-1.6,0-3-1.3-3-3l0,0c0-1.6,1.3-3,3-3h6.4c1.6,0,3,1.3,3,3l0,0
		C70.2,257,68.9,258.3,67.3,258.3z"/>
	<path class="st17" d="M130,227.3h-26.7c-1.4,0-2.5-1.1-2.5-2.5v-0.8c0-1.4,1.1-2.5,2.5-2.5H130c1.4,0,2.5,1.1,2.5,2.5v0.8
		C132.6,226.2,131.4,227.3,130,227.3z"/>
	<path class="st17" d="M88.8,227.3h-6.4c-1.6,0-3-1.3-3-3l0,0c0-1.6,1.3-3,3-3h6.4c1.6,0,3,1.3,3,3l0,0
		C91.7,226,90.4,227.3,88.8,227.3z"/>
	<path class="st17" d="M109.6,242.6H61.7c-1.6,0-3-1.3-3-3l0,0c0-1.6,1.3-3,3-3h47.9c1.6,0,3,1.3,3,3l0,0
		C112.6,241.3,111.2,242.6,109.6,242.6z"/>
	<path class="st17" d="M44.9,242.6h-6.4c-1.6,0-3-1.3-3-3l0,0c0-1.6,1.3-3,3-3h6.4c1.6,0,3,1.3,3,3l0,0
		C47.9,241.3,46.5,242.6,44.9,242.6z"/>
	<path class="st25" d="M128.4,196.3c0,0-26.6-3.9-27.6-18c-0.8-11.4,10-19,10-19"/>
	<path class="st26" d="M391.3,61.8c0,0,23.1,13.7,18.7,27.1c-3.6,10.9-16.5,13.7-16.5,13.7"/>
</g>
<g id="Layer_2">
</g>
</svg>
